<?xml version="1.0" encoding="utf-8"?>
<!-- Generator: Adobe Illustrator 16.0.0, SVG Export Plug-In . SVG Version: 6.00 Build 0)  -->
<!DOCTYPE svg PUBLIC "-//W3C//DTD SVG 1.1//EN" "http://www.w3.org/Graphics/SVG/1.1/DTD/svg11.dtd">
<svg version="1.1" id="图层_1" xmlns="http://www.w3.org/2000/svg" xmlns:xlink="http://www.w3.org/1999/xlink" x="0px" y="0px"
	 width="2834.65px" height="1700.79px" viewBox="0 0 2834.65 1700.79" enable-background="new 0 0 2834.65 1700.79"
	 xml:space="preserve">
<path d="M1482.539,782.804V600.521c0-46.805-1.573-100.374-4.714-160.746c-3.159-60.372-7.084-107.857-11.798-142.474
	l-142.971-3.849l1.246-19.904l387.724-2.799c73.53,0,132.23,14.656,176.091,43.966c43.841,29.292,74.22,62.725,91.14,100.277
	c16.902,37.572,25.366,69.916,25.366,97.049c0,37.359-8.464,70.694-25.366,99.985c-16.92,29.312-39.038,52.598-66.367,69.896
	c-27.338,17.318-55.152,27.542-83.473,30.692v2.352c26.735,10.613,48.963,24.782,66.659,42.489
	c13.762,13.762,17.067,18.699,34.045,44.161c6.221,9.33-6.717-9.038,22.393,34.21c29.106,43.266,43.257,65.191,60.953,89.566
	c17.698,24.394,59.179,75.669,74.134,91.004c33.035,33.043,65.668,49.566,97.926,49.566v5.89h-102.648
	c-57.428,0-103.036-17.3-136.857-51.919c-13.373-13.372-26.648-29.194-39.826-47.484c-13.179-18.29-34.016-48.263-62.529-89.975
	c-28.515-41.674-7.465-13.529-26.931-40.663c-19.467-27.134-34.91-46.416-46.31-57.826c-16.91-16.891-32.354-28.203-46.31-33.918
	c-13.964-5.695-34.51-8.552-61.644-8.552c-24.783,0-44.057,1.381-57.818,4.121c-2.36,21.245-3.537,44.843-3.537,70.791v109.139
	c0,46.008,4.918,106.77,14.745,182.283l146.896,20.661v5.89h-438.309c0,0,12.604-25.21,23.489-24.898
	c56.299,1.632,115.688-2.489,115.688-2.489c5.9-39.69,10.069-94.735,13.606-166.693
	C1480.771,868.347,1482.539,815.847,1482.539,782.804z M1497.292,293.764v817.645h42.47V293.764H1497.292z M1599.94,513.21v96.759
	c0,34.209,1.175,66.067,3.537,95.552c15.336,2.372,37.554,3.538,66.661,3.538c50.332,0,90.936-8.63,121.813-25.948
	c30.876-17.299,52.898-39.828,66.077-67.545c13.169-27.717,19.757-58.117,19.757-91.14c0-32.636-6.395-62.725-19.165-90.248
	c-12.789-27.523-29.312-50.848-49.555-69.916c-20.264-19.068-42.87-33.821-67.846-44.239
	c-24.978-10.418-49.459-15.647-73.444-15.647c-22.809,0-40.7,1.593-53.686,4.743c-3.537,22.799-6.783,55.435-9.728,97.925
	C1601.408,449.495,1599.94,484.909,1599.94,513.21z M1658.932,283.735v5.908c53.871,1.166,99.004,14.268,135.381,39.224
	c36.377,24.977,62.83,55.552,79.343,91.744c16.521,36.192,24.782,71.957,24.782,107.352c0,78.661-34.219,135.495-102.648,170.482
	l3.538,2.372c40.119-10.223,73.239-32.052,99.401-65.484c26.152-33.412,39.233-73.336,39.233-119.752
	c0-36.192-7.083-68.924-21.233-98.235c-14.16-29.272-33.335-53.764-57.525-73.433c-24.18-19.671-51.228-34.598-81.111-44.824
	c-29.894-10.223-59.974-15.354-90.257-15.354H1658.932z M1812.311,805.817l82.979,123.271c30.672,43.656,58,74.833,81.994,93.512
	c23.986,18.679,52.297,28.224,84.951,28.612v-5.91c-31.08-9.037-70.994-48.961-119.753-119.752l-65.853-90.966
	c-22.031-32.227-34.441-50.596-53.705-67.097c-19.272-16.521-42.869-27.523-70.791-33.044l-2.361,4.705
	C1771.793,753.318,1792.641,775.535,1812.311,805.817z"/>
<g>
	<path d="M859.689,1263.562l4.816,2.864c-2.518,6.856-4.101,12.193-4.751,16.011c-0.65,3.819-1.151,9.872-1.497,18.158
		c-0.348,8.288-0.521,17.855-0.521,28.702v82.268c0,1.907,0.173,8.048,0.521,18.419c0.346,10.369,0.716,16.422,1.106,18.158
		c0.39,1.735,0.997,2.994,1.822,3.775c0.824,0.781,1.777,1.279,2.864,1.497c1.084,0.215,5.748,0.586,13.993,1.106l1.171,1.041v5.467
		l-1.041,1.172c-10.849-0.695-21.305-1.041-31.371-1.041c-9.287,0-19.7,0.346-31.241,1.041l-1.041-1.172v-5.467l1.041-1.041
		c8.417-0.521,13.167-0.911,14.253-1.172c1.084-0.261,2.038-0.804,2.864-1.627c0.824-0.826,1.387-2.147,1.692-3.971
		c0.303-1.822,0.651-7.637,1.042-17.442c0.39-9.808,0.585-17.183,0.585-22.129v-38.66l-27.856,17.442
		c-2.083,1.302-3.319,2.038-3.71,2.213c-0.391,0.173-1.757,0.391-4.1,0.651c-2.343,0.26-4.991,0.391-7.94,0.391
		c-15.881,0-28.442-5.836-37.684-17.508c-9.242-11.671-13.863-25.448-13.863-41.329c0-10.586,2.038-20.652,6.118-30.199
		c3.124-7.114,8.156-13.189,15.1-18.224c2.083-1.475,9.763-5.9,23.04-13.277c8.331-4.511,17.313-6.769,26.945-6.769
		c11.02,0,22.432,3.038,34.235,9.111L859.689,1263.562z M835.999,1287.122c-2.951-2.949-7.464-5.942-13.538-8.981
		c-6.075-3.036-12.496-4.556-19.265-4.556c-11.542,0-20.915,4.513-28.116,13.537c-7.204,9.026-10.804,20.827-10.804,35.406
		c0,9.633,1.8,18.854,5.402,27.661c3.6,8.809,8.504,15.165,14.709,19.07c6.203,3.904,12.952,5.857,20.241,5.857
		c11.628,0,22.084-5.728,31.371-17.183c0.261-21.693,0.391-34.104,0.391-37.229C836.389,1306.302,836.259,1295.107,835.999,1287.122
		z"/>
	<path d="M924.904,1263.171l2.473,1.692c-0.956,11.37-1.432,25.818-1.432,43.347v30.329c0,11.109,0.846,18.832,2.538,23.17
		c1.692,4.341,4.621,7.66,8.787,9.958c4.166,2.301,9.112,3.45,14.839,3.45c6.333,0,12.105-1.237,17.313-3.71
		c5.207-2.474,9.567-5.966,13.082-10.479c3.515-4.512,5.532-7.55,6.053-9.112c0.521-1.562,0.866-5.942,1.042-13.146l0.39-14.579
		v-14.059c0-3.47-0.175-8.2-0.521-14.188c-0.348-5.987-0.63-9.675-0.846-11.064c-0.217-1.387-0.891-2.408-2.018-3.059
		c-1.129-0.651-3.384-0.977-6.769-0.977l-10.935-0.13l-1.171-1.042v-5.597l1.042-1.042c16.574-1.995,30.545-5.249,41.915-9.763
		l2.473,1.692c-0.956,11.37-1.432,25.818-1.432,43.347v22.91c0,1.301,0.216,11.933,0.651,31.891
		c0.173,7.377,0.629,11.868,1.367,13.473c0.736,1.607,1.757,2.733,3.059,3.385c1.302,0.65,5.162,0.977,11.585,0.977h3.645
		l1.171,1.041v5.207l-1.041,1.171c-12.236-0.695-20.437-1.041-24.602-1.041c-5.294,0-11.412,0.303-18.354,0.911l-1.171-1.041
		c0.521-8.852,0.911-16.356,1.171-22.52c-5.467,4.253-11.715,9.938-18.745,17.052c-2.69,2.691-6.553,4.947-11.585,6.77
		c-5.034,1.822-10.761,2.733-17.182,2.733c-9.72,0-17.292-1.542-22.715-4.621c-5.424-3.079-9.264-7.332-11.52-12.757
		c-2.257-5.422-3.384-14.774-3.384-28.052l0.13-10.283v-25.383c0-3.47-0.175-8.2-0.521-14.188c-0.348-5.987-0.63-9.675-0.846-11.064
		c-0.218-1.387-0.891-2.408-2.018-3.059c-1.128-0.651-3.384-0.977-6.769-0.977l-10.934-0.13l-1.172-1.042v-5.597l1.042-1.042
		C899.564,1270.938,913.535,1267.685,924.904,1263.171z"/>
	<path d="M1068.221,1298.968l-5.076-1.302l-1.042-1.302v-16.141c15.445-11.455,30.459-17.183,45.039-17.183
		c9.978,0,18.267,1.867,24.862,5.598c6.594,3.731,11.367,8.396,14.319,13.993c2.949,5.597,4.425,12.128,4.425,19.59l-0.65,26.164
		v38.791c0,5.294,0.368,8.506,1.106,9.633c0.736,1.128,1.582,1.887,2.538,2.277c0.954,0.391,2.733,0.716,5.337,0.977l7.419,0.65
		l1.042,1.172v5.207l-1.042,1.041c-6.335-0.521-12.236-0.781-17.703-0.781c-5.207,0-11.455,0.261-18.745,0.781l-1.953-1.822
		l0.521-20.957l-28.377,22.129c-4.773,1.995-9.98,2.993-15.621,2.993c-6.943,0-12.909-1.259-17.898-3.774
		c-4.991-2.516-8.809-6.03-11.455-10.544c-2.648-4.511-3.97-9.979-3.97-16.401c0-12.757,3.991-22.715,11.976-29.874
		c7.983-7.159,29.764-13.255,65.345-18.288c0-12.843-2.864-21.89-8.591-27.141c-5.728-5.25-13.407-7.875-23.04-7.875
		c-5.034,0-9.612,0.738-13.733,2.213c-4.123,1.477-6.488,2.668-7.094,3.579c-0.608,0.911-2.951,6.228-7.029,15.946
		L1068.221,1298.968z M1128.62,1319.534c-24.299,4.08-39.441,8.461-45.429,13.147s-8.982,11.933-8.982,21.738
		c0,13.538,6.724,20.307,20.176,20.307c11.541,0,22.953-6.682,34.235-20.046V1319.534z"/>
	<path fill="#FFFFFF" d="M1218.437,1263.171l2.473,1.692c-0.521,5.815-0.869,13.452-1.042,22.91
		c6.942-5.728,13.538-11.54,19.786-17.443c1.823-1.646,3.535-2.863,5.142-3.645c1.604-0.78,4.273-1.604,8.005-2.473
		c3.73-0.867,7.55-1.302,11.455-1.302c6.594,0,12.995,1.347,19.2,4.035c6.203,2.69,10.889,5.88,14.058,9.567
		c3.167,3.689,5.357,8.05,6.574,13.082c1.214,5.034,1.822,11.239,1.822,18.614v22.91c0,1.477,0.216,12.28,0.651,32.412
		c0.173,8.245,1.084,13.146,2.733,14.709c1.647,1.562,7.029,2.343,16.141,2.343l1.042,1.041v5.598l-1.042,1.041
		c-11.021-0.695-18.484-1.041-22.389-1.041c-2.257,0-8.591,0.346-19.005,1.041l-1.562-1.432c1.127-11.28,1.692-25.989,1.692-44.127
		v-17.053c0-10.238-0.24-17.615-0.716-22.129c-0.478-4.511-1.932-8.611-4.361-12.301c-2.431-3.688-5.685-6.551-9.763-8.591
		c-4.08-2.038-8.939-3.06-14.579-3.06c-4.513,0-8.375,0.456-11.585,1.367c-3.211,0.911-6.813,2.778-10.804,5.598
		c-3.993,2.82-6.944,5.467-8.852,7.939c-1.91,2.474-3.059,4.774-3.45,6.899c-0.391,2.128-0.586,6.661-0.586,13.603v22.649
		c0,1.91,0.173,8.051,0.521,18.419c0.346,10.371,0.716,16.424,1.106,18.159c0.39,1.736,0.976,2.993,1.757,3.774
		c0.781,0.781,1.735,1.281,2.864,1.497c1.126,0.218,5.813,0.586,14.058,1.106l1.171,1.041v5.468l-1.041,1.171
		c-10.849-0.695-21.305-1.041-31.371-1.041c-9.98,0-20.394,0.346-31.241,1.041l-1.171-1.171v-5.468l1.171-1.041
		c8.417-0.521,13.167-0.911,14.254-1.172c1.084-0.26,2.038-0.801,2.863-1.627c0.824-0.823,1.387-2.082,1.692-3.774
		c0.303-1.692,0.651-7.29,1.042-16.792c0.391-9.503,0.585-16.683,0.585-21.543v-25.644c0-3.47-0.175-8.2-0.521-14.188
		c-0.348-5.987-0.63-9.675-0.846-11.064c-0.217-1.387-0.891-2.408-2.018-3.059c-1.129-0.651-3.384-0.977-6.769-0.977l-10.935-0.13
		l-1.171-1.042v-5.597l1.042-1.042C1193.096,1270.938,1207.067,1267.685,1218.437,1263.171z"/>
	<path d="M1335.068,1285.04v-3.385l0.911-1.302c8.156-3.036,14.751-5.857,19.786-8.461c0-22.649-0.26-35.839-0.781-39.571
		c8.938-3.124,16.271-6.464,21.999-10.023l3.124,2.604c-0.868,5.467-1.91,21.348-3.124,47.642c4.338,0.088,9.024,0.131,14.059,0.131
		c10.238,0,17.572-0.261,21.998-0.781l0.911,0.911l-2.473,10.935l-1.042,1.171c-4.426-0.085-9.329-0.13-14.709-0.13
		c-4.86,0-11.109,0.045-18.744,0.13l-0.781,52.979c0,12.235,0.281,20.241,0.847,24.016c0.563,3.775,2.125,6.727,4.686,8.852
		c2.559,2.128,6.356,3.189,11.39,3.189c5.813,0,11.195-1.518,16.142-4.556l3.124,4.686c-2.083,1.477-7.074,5.815-14.97,13.018
		c-4.513,2.082-9.111,3.124-13.798,3.124c-19.525,0-29.288-9.458-29.288-28.377c0-6.942,0.173-12.842,0.521-17.703
		c0.086-1.475,0.13-2.994,0.13-4.556v-54.021h-5.337c-3.905,0-8.375,0.175-13.407,0.521L1335.068,1285.04z"/>
	<path d="M1464.586,1263.171l2.474,1.692c-0.956,11.37-1.432,25.818-1.432,43.347v29.418c0,1.91,0.173,8.051,0.521,18.419
		c0.346,10.371,0.716,16.424,1.106,18.159c0.391,1.736,0.977,2.993,1.757,3.774c0.781,0.781,1.735,1.281,2.864,1.497
		c1.127,0.218,5.813,0.586,14.059,1.106l1.171,1.041v5.468l-1.041,1.171c-10.849-0.695-21.306-1.041-31.371-1.041
		c-9.98,0-20.394,0.346-31.24,1.041l-1.172-1.171v-5.468l1.172-1.041c8.416-0.521,13.167-0.911,14.253-1.172
		c1.084-0.26,2.038-0.801,2.864-1.627c0.823-0.823,1.387-2.082,1.692-3.774c0.303-1.692,0.65-7.29,1.041-16.792
		c0.391-9.503,0.586-16.683,0.586-21.543v-25.644c0-3.47-0.175-8.2-0.521-14.188c-0.349-5.987-0.631-9.675-0.847-11.064
		c-0.218-1.387-0.891-2.408-2.018-3.059c-1.129-0.651-3.384-0.977-6.769-0.977l-10.935-0.13l-1.171-1.042v-5.597l1.041-1.042
		C1439.246,1270.938,1453.217,1267.685,1464.586,1263.171z M1453.522,1204.985c4.077,0,7.55,1.432,10.413,4.296
		c2.863,2.863,4.296,6.336,4.296,10.413c0,3.993-1.433,7.42-4.296,10.284c-2.863,2.863-6.336,4.295-10.413,4.295
		c-3.993,0-7.442-1.409-10.349-4.23c-2.909-2.818-4.361-6.269-4.361-10.349c0-4.077,1.452-7.55,4.361-10.413
		C1446.08,1206.417,1449.529,1204.985,1453.522,1204.985z"/>
	<path d="M1606.602,1373.295l-5.207,8.721c-11.194,6.161-23.69,9.242-37.489,9.242c-19.092,0-33.844-5.683-44.257-17.052
		c-10.414-11.368-15.621-26.034-15.621-43.998c0-8.155,0.89-15.425,2.669-21.803c1.777-6.379,4.035-11.65,6.769-15.815
		c2.733-4.166,5.748-7.463,9.047-9.894c3.297-2.428,8.872-5.813,16.727-10.153c7.854-4.338,13.776-7.179,17.769-8.525
		c3.99-1.345,9.502-2.018,16.531-2.018c13.45,0,24.472,2.561,33.063,7.68c-1.649,9.808-2.909,20.742-3.775,32.803l-1.171,1.041
		h-5.337l-1.172-1.171c-0.348-7.29-0.826-12.191-1.432-14.709c-0.608-2.517-4.058-5.207-10.349-8.071
		c-6.293-2.863-12.997-4.295-20.111-4.295c-7.116,0-13.452,1.497-19.005,4.49c-5.555,2.994-9.742,7.897-12.562,14.709
		c-2.82,6.814-4.23,14.949-4.23,24.407c0,7.985,1.127,15.772,3.385,23.365c2.256,7.595,5.227,13.886,8.917,18.875
		c3.687,4.991,8.568,9.004,14.644,12.04c6.073,3.039,12.842,4.557,20.307,4.557c4.686,0,9.262-0.606,13.732-1.823
		c4.469-1.214,9.61-3.209,15.426-5.987L1606.602,1373.295z"/>
	<path fill="#FFFFFF" d="M1684.052,1204.204l1.042-0.911c15.88,0.696,28.246,1.042,37.098,1.042c9.806,0,23.04-0.304,39.702-0.911
		c6.16-0.173,10.629-0.261,13.407-0.261c21.954,0,36.838,3.992,44.648,11.976c7.81,7.985,11.715,17.442,11.715,28.377
		c0,7.289-1.91,14.449-5.728,21.478c-3.819,7.029-9.46,13.04-16.922,18.029c-7.465,4.991-17.748,8.743-30.851,11.259
		c2.429,3.385,6.812,9.242,13.147,17.573l18.484,24.472c5.987,8.07,12.408,16.597,19.265,25.578
		c6.854,8.982,11.28,14.059,13.277,15.23c1.995,1.171,3.71,1.888,5.142,2.147c1.432,0.261,3.71,0.391,6.834,0.391l1.041,1.041v6.118
		l-1.171,1.172c-4.166-0.521-9.112-0.781-14.84-0.781c-6.162,0-12.887,0.261-20.176,0.781c-5.988-7.29-15.405-19.916-28.247-37.88
		c-14.927-20.827-30.199-40.135-45.819-57.925l1.302-4.035c4.511,0.26,8.025,0.391,10.544,0.391c15.012,0,26.77-3.601,35.275-10.805
		c8.504-7.202,12.757-17.183,12.757-29.938c0-11.455-3.819-20.111-11.455-25.969c-7.637-5.858-17.963-8.787-30.98-8.787
		c-9.111,0-17.703,1.26-25.773,3.775c-1.302,1.91-1.952,18.181-1.952,48.813v60.269l0.13,25.383
		c0.086,9.808,0.346,16.141,0.781,19.005c0.433,2.863,1.062,4.773,1.888,5.728c0.823,0.956,2.407,1.757,4.751,2.408
		c2.343,0.65,8.113,1.151,17.313,1.497l1.041,0.78v6.509l-1.041,1.041c-0.436,0-8.07-0.26-22.91-0.78
		c-6.162-0.176-10.979-0.261-14.448-0.261c-2.691,0-15.1,0.346-37.229,1.041l-1.042-1.041v-6.509l1.042-0.78
		c8.07-0.346,13.45-0.781,16.141-1.302c2.688-0.521,4.491-1.192,5.402-2.018c0.911-0.824,1.647-2.581,2.213-5.272
		c0.563-2.688,0.889-8.677,0.976-17.963l0.131-27.466v-60.269l-0.261-25.383c-0.087-9.894-0.325-16.271-0.716-19.135
		c-0.391-2.864-0.999-4.771-1.822-5.728c-0.826-0.954-2.408-1.735-4.751-2.344c-2.344-0.605-8.115-1.084-17.313-1.432l-1.042-0.911
		V1204.204z"/>
	<path d="M1862.514,1457.904c2.949-7.289,5.162-13.973,6.639-20.046h3.124c4.251,4.599,8.852,6.899,13.798,6.899
		c6.161,0,11.521-3.06,16.076-9.177c4.556-6.118,10.999-19.636,19.33-40.548c-3.299-9.285-6.639-18.049-10.022-26.295
		l-20.697-51.286c-2.17-5.292-5.382-12.864-9.633-22.715c-4.253-9.848-6.791-15.272-7.615-16.271
		c-0.825-0.996-1.887-1.93-3.188-2.798c-1.302-0.867-4.816-1.692-10.544-2.474l-1.041-1.041v-5.207l1.171-1.041
		c9.979,0.607,20.22,0.911,30.721,0.911c12.321,0,21.823-0.304,28.507-0.911l1.041,1.041v5.207l-0.911,1.041
		c-0.956,0.088-3.624,0.282-8.005,0.586c-4.384,0.305-7.117,0.998-8.201,2.082c-1.086,1.087-1.627,2.323-1.627,3.71
		c0,1.477,1.345,6.271,4.035,14.384c2.688,8.115,5.292,15.295,7.811,21.543l8.2,20.307c5.38,13.365,9.545,23.215,12.496,29.549
		l6.899-15.23c2.429-5.552,5.9-13.971,10.413-25.253l10.805-27.596c2.776-7.114,4.36-11.54,4.751-13.277
		c0.391-1.734,0.586-2.993,0.586-3.774c0-1.908-0.696-3.21-2.083-3.905c-1.389-0.693-4.471-1.302-9.242-1.822l-5.467-0.781
		l-0.911-1.041v-5.728l1.041-1.041c7.29,0.607,15.924,0.911,25.904,0.911c9.111,0,16.401-0.304,21.868-0.911l1.041,1.041v5.728
		l-1.041,1.041c-3.212,0.088-5.772,0.521-7.68,1.302c-1.91,0.781-3.732,2.17-5.468,4.165c-1.736,1.998-4.86,7.615-9.372,16.857
		c-4.513,9.242-9.026,18.81-13.537,28.702l-12.757,27.986l-30.069,70.292c-2.604,6.073-5.837,12.581-9.697,19.525
		c-3.862,6.941-8.592,11.953-14.188,15.034c-5.598,3.079-11.521,4.621-17.769,4.621
		C1872.537,1462.2,1867.373,1460.769,1862.514,1457.904z"/>
	<path d="M2025.355,1298.968l-5.076-1.302l-1.042-1.302v-16.141c15.446-11.455,30.46-17.183,45.039-17.183
		c9.979,0,18.267,1.867,24.862,5.598c6.594,3.731,11.367,8.396,14.318,13.993c2.949,5.597,4.426,12.128,4.426,19.59l-0.65,26.164
		v38.791c0,5.294,0.368,8.506,1.106,9.633c0.736,1.128,1.582,1.887,2.538,2.277c0.954,0.391,2.733,0.716,5.337,0.977l7.42,0.65
		l1.041,1.172v5.207l-1.041,1.041c-6.336-0.521-12.236-0.781-17.703-0.781c-5.207,0-11.455,0.261-18.744,0.781l-1.953-1.822
		l0.521-20.957l-28.377,22.129c-4.773,1.995-9.979,2.993-15.62,2.993c-6.943,0-12.909-1.259-17.898-3.774
		c-4.991-2.516-8.809-6.03-11.454-10.544c-2.648-4.511-3.971-9.979-3.971-16.401c0-12.757,3.99-22.715,11.976-29.874
		c7.983-7.159,29.764-13.255,65.345-18.288c0-12.843-2.863-21.89-8.591-27.141c-5.728-5.25-13.407-7.875-23.04-7.875
		c-5.034,0-9.612,0.738-13.732,2.213c-4.123,1.477-6.488,2.668-7.095,3.579c-0.608,0.911-2.951,6.228-7.029,15.946
		L2025.355,1298.968z M2085.754,1319.534c-24.299,4.08-39.441,8.461-45.429,13.147c-5.988,4.687-8.981,11.933-8.981,21.738
		c0,13.538,6.724,20.307,20.176,20.307c11.54,0,22.953-6.682,34.234-20.046V1319.534z"/>
</g>
<g>
	<path d="M1325.922,273.921l-2.738,601.927c-0.633,78.617,3.534,156.661,12.526,234.103l74.458,20.441l-2.027,5.646h-348
		l2.027-5.646l141.511-20.441c8.896-38.529,14.84-80.456,17.811-125.809c2.966-45.339,2.429-84.75-1.648-118.221H910.919
		c-27.321,39.323-49.557,71.617-66.732,96.911c-17.175,25.295-34.36,51.574-51.561,78.81c-17.206,27.25-30.238,50.015-39.119,68.309
		l122.083,20.441l-2.027,5.646H598.141l2.027-5.646l97.339-20.441c38.334-45.147,76.53-94.956,114.598-149.456L1287,273.921
		H1325.922z M1214.952,437.686c-16.282,20.588-38.851,50.676-67.71,90.279c-28.875,39.603-55.421,76.677-79.672,111.235
		c-24.252,34.559-49.801,71.338-76.637,110.353c-26.852,39.015-44.633,64.735-53.376,77.162c18.277,3.103,40.105,5.235,65.5,6.397
		c25.39,1.177,49.762,1.75,73.106,1.75c57.531,0,105.675-2.706,144.456-8.147c3.266-43.868,4.486-106.279,3.662-187.235
		C1223.452,558.539,1220.337,491.274,1214.952,437.686z M1240.436,388.774l-4.514,724.676h33.016l5.08-773.647L1240.436,388.774z"/>
</g>
<g>
	<path d="M524.334,1390.331l-0.804-1.042l2.394-6.769l1.54-1.041c6.363-0.086,10.559-0.411,12.581-0.977
		c2.023-0.563,4.049-1.691,6.079-3.384c2.03-1.692,6.872-7.225,14.526-16.598l24.164-29.678l63.763-80.185
		c12.235-15.706,24.429-31.413,36.581-47.121h8.461L693.5,1263.5l0.5,24.5c0.419,4.947,3.371,74.247,4.137,80.06
		c0.763,5.815,1.503,9.242,2.221,10.283c0.716,1.041,1.776,1.845,3.183,2.408c1.406,0.565,4.87,0.891,10.394,0.977l0.673,1.041
		l-2.394,6.769l-1.409,1.042c-8.923-0.781-17.073-1.172-24.448-1.172c-14.56,0.434-29.104,0.823-43.63,1.172l-0.674-1.042
		l2.394-6.769l1.41-1.041c9.779-0.173,16-0.586,18.661-1.236c2.658-0.651,4.404-2.148,5.232-4.491
		c0.675-1.908,0.957-4.426,0.848-7.55l0.263-40.193l-69.729,0.243l-25.974,33.323c-4.636,5.988-7.442,10.371-8.425,13.147
		c-0.768,2.17-0.163,3.775,1.812,4.816s7.675,1.606,17.104,1.692l0.804,1.041l-2.394,6.769l-1.41,1.042
		c-10.949-0.695-20.634-1.042-29.05-1.042C544.053,1389.289,534.297,1389.636,524.334,1390.331z M609.517,1317.306l60.226-0.243
		l0.727-78.249L609.517,1317.306z"/>
</g>
<g>
	<path d="M2193.212,1262.086l2.479,1.691c-0.526,5.813-0.865,13.47-1.051,22.916c6.938-5.733,13.539-11.545,19.787-17.455
		c1.818-1.632,3.539-2.855,5.142-3.634c1.604-0.778,4.276-1.612,8.008-2.469c3.722-0.855,7.552-1.321,11.448-1.321
		c6.6,0,12.994,1.361,19.204,4.043s10.896,5.87,14.053,9.563c3.178,3.692,5.366,8.046,6.579,13.1
		c1.226,5.015,1.828,11.234,1.828,18.603l-0.933,29.291c0,1.478-1.555-8.571-1.117,11.564c0.174,8.243,1.088,13.159,2.74,14.715
		c1.632,1.556,7.017,2.333,16.132,2.333l1.04,1.048v5.6l-1.04,1.05c-11.02-0.701-18.484-1.05-22.392-1.05
		c-2.255,0-8.591,0.349-19.009,1.05l-1.555-1.439c1.117-11.272,3.459-5.151,3.459-23.285v-17.048
		c0-10.242,0.691-24.004,0.214-28.514c-0.477-4.509-1.933-8.609-4.364-12.283c-2.42-3.694-5.675-6.57-9.768-8.592
		c-4.081-2.061-8.92-3.07-14.566-3.07c-4.51,0-8.387,0.466-11.594,1.359c-3.199,0.933-6.813,2.78-10.799,5.599
		c-3.994,2.838-6.948,5.481-8.843,7.931c-1.915,2.486-3.081,4.78-3.45,6.919c-0.408,2.119-0.594,6.647-0.594,13.606v22.625
		c0,1.905,0.176,8.066,0.516,18.427c0.35,10.379,0.709,16.424,1.117,18.154c0.38,1.749,0.971,2.994,1.75,3.771
		c0.777,0.797,1.74,1.282,2.867,1.516c1.127,0.214,5.813,0.583,14.063,1.088l1.166,1.051v5.48l-1.04,1.166
		c-10.854-0.699-21.303-1.049-31.38-1.049c-9.963,0-20.381,0.35-31.236,1.049l-1.168-1.166v-5.48l1.168-1.051
		c8.416-0.505,13.178-0.894,14.246-1.165c1.099-0.233,2.051-0.797,2.869-1.633c0.834-0.816,1.389-2.062,1.709-3.752
		c0.292-1.71,0.631-7.288,1.039-16.813c0.369-9.485,0.574-16.676,0.574-21.536v-25.638c0-3.479-0.176-8.202-0.523-14.188
		c-0.342-5.987-0.623-9.68-0.837-11.06c-0.224-1.4-0.903-2.411-2.031-3.071c-1.118-0.643-3.373-0.973-6.753-0.973l-10.945-0.115
		l-1.175-1.05v-5.599l1.04-1.05C2167.877,1269.861,2181.831,1266.596,2193.212,1262.086z"/>
</g>
<g>
	<path d="M1687.777,1208.751l1.04-0.914c15.879,0.681,28.242,1.029,37.096,1.029c9.816,0,23.042-0.31,39.71-0.912
		c6.151-0.176,10.622-0.253,13.401-0.253c21.955,0,36.834,3.985,44.647,11.973c7.814,7.989,11.712,17.456,11.712,28.379
		c0,7.289-1.896,14.461-5.724,21.479c-3.82,7.036-9.458,13.042-16.92,18.019c-7.477,5.015-17.758,8.746-30.848,11.272
		c2.42,3.382-8.932-11.43-2.596-3.109l18.476,24.472c5.996,8.065,12.421,16.618,19.272,25.579c6.852,9,11.273,14.054,13.273,15.238
		c2.002,1.166,3.725,1.887,5.133,2.158c1.448,0.232,3.723,0.39,6.843,0.39l1.048,1.011v6.141l-1.176,1.166
		c-4.158-0.524-9.104-0.778-14.84-0.778c-6.162,0-12.887,0.254-20.175,0.778c-5.987-7.307-15.405-19.922-28.253-37.863
		c-14.918-20.837-14.451-19.475-30.069-37.262l1.294-4.042c4.508,0.252,8.026,0.407,10.554,0.407
		c15.004,0,26.755-3.614,35.269-10.807c8.514-7.23,12.761-17.182,12.761-29.933c0-11.468-3.831-20.138-11.459-26.008
		c-7.639-5.83-17.959-8.766-30.982-8.766c-9.116,0-17.699,1.264-25.774,3.771c-1.302,1.904-1.953,18.173-1.953,48.826v60.255
		l0.136,25.385c0.077,9.816,0.341,16.152,0.778,18.99c0.438,2.876,1.068,4.781,1.875,5.754c0.836,0.932,2.42,1.75,4.763,2.41
		c2.341,0.621,8.115,1.126,17.309,1.478l1.05,0.776v6.531l-1.05,1.031c-0.438,0-8.066-0.254-22.907-0.778
		c-6.161-0.176-10.973-0.253-14.441-0.253c-2.692,0-15.104,0.33-37.231,1.031l-1.04-1.031v-6.531l1.04-0.776
		c8.075-0.352,13.45-0.778,16.132-1.283c2.692-0.546,4.5-1.206,5.404-2.022c0.922-0.815,1.651-2.604,2.226-5.286
		c0.554-2.683,0.885-8.669,0.971-17.96l0.138-27.465v-60.255l-0.264-25.405c-0.087-9.875-0.331-16.249-0.728-19.126
		c-0.379-2.857-0.992-4.761-1.829-5.715c-0.805-0.971-2.389-1.749-4.742-2.352c-2.341-0.603-8.115-1.088-17.308-1.419l-1.04-0.934
		V1208.751z"/>
</g>
<g>
	<path d="M1226.833,1262.086l2.469,1.691c-0.525,5.813-0.866,13.47-1.04,22.916c6.948-5.733,13.538-11.545,19.787-17.455
		c1.827-1.632,3.537-2.855,5.151-3.634c1.593-0.778,4.268-1.612,7.999-2.469c3.731-0.855,7.55-1.321,11.458-1.321
		c6.579,0,12.993,1.361,19.184,4.043c6.22,2.682,10.904,5.87,14.063,9.563c3.167,3.692,5.355,8.046,6.58,13.1
		c1.215,5.015,1.818,11.234,1.818,18.603l-0.915,29.291c0,1.478-1.564-8.571-1.127,11.564c0.175,8.243,1.087,13.159,2.73,14.715
		c1.644,1.556,7.037,2.333,16.144,2.333l1.048,1.048v5.6l-1.048,1.05c-11.021-0.701-18.485-1.05-22.393-1.05
		c-2.265,0-8.582,0.349-19,1.05l-1.565-1.439c1.128-11.272,3.471-5.151,3.471-23.285v-17.048c0-10.242,0.69-24.004,0.194-28.514
		c-0.466-4.509-1.924-8.609-4.354-12.283c-2.42-3.694-5.675-6.57-9.757-8.592c-4.083-2.061-8.942-3.07-14.588-3.07
		c-4.51,0-8.368,0.466-11.575,1.359c-3.218,0.933-6.813,2.78-10.807,5.599c-3.986,2.838-6.949,5.481-8.854,7.931
		c-1.905,2.486-3.061,4.78-3.441,6.919c-0.397,2.119-0.591,6.647-0.591,13.606v22.625c0,1.905,0.175,8.066,0.525,18.427
		c0.338,10.379,0.709,16.424,1.117,18.154c0.37,1.749,0.962,2.994,1.75,3.771c0.778,0.797,1.74,1.282,2.858,1.516
		c1.126,0.214,5.801,0.583,14.053,1.088l1.177,1.051v5.48l-1.04,1.166c-10.857-0.699-21.304-1.049-31.373-1.049
		c-9.972,0-20.391,0.35-31.246,1.049l-1.166-1.166v-5.48l1.166-1.051c8.416-0.505,13.169-0.894,14.257-1.165
		c1.08-0.233,2.042-0.797,2.858-1.633c0.826-0.816,1.399-2.062,1.7-3.752c0.302-1.71,0.651-7.288,1.04-16.813
		c0.389-9.485,0.584-16.676,0.584-21.536v-25.638c0-3.479-0.176-8.202-0.515-14.188c-0.349-5.987-0.632-9.68-0.845-11.06
		c-0.224-1.4-0.895-2.411-2.022-3.071c-1.127-0.643-3.381-0.973-6.774-0.973l-10.922-0.115l-1.176-1.05v-5.599l1.04-1.05
		C1201.496,1269.861,1215.463,1266.596,1226.833,1262.086z"/>
</g>
<g>
</g>
<g>
</g>
<g>
</g>
<g>
</g>
<g>
</g>
<g>
</g>
</svg>
